<svg t="1672662521442" class="icon" viewBox="0 0 1027 1024" version="1.1" xmlns="http://www.w3.org/2000/svg" p-id="48994" width="200" height="200"><path d="M334.4 582.4c-19.2 0-38.4 9.6-54.4 28.8-12.8 19.2-22.4 44.8-22.4 70.4 0 28.8 6.4 51.2 22.4 70.4 16 19.2 32 28.8 54.4 28.8 19.2 0 35.2-9.6 51.2-28.8 16-19.2 22.4-44.8 22.4-70.4 0-28.8-6.4-51.2-22.4-70.4s-32-28.8-51.2-28.8z m353.6 0c-19.2 0-38.4 9.6-54.4 28.8-16 19.2-22.4 44.8-22.4 70.4 0 28.8 6.4 51.2 22.4 70.4 12.8 19.2 32 28.8 54.4 28.8 19.2 0 35.2-9.6 51.2-28.8 12.8-19.2 22.4-44.8 22.4-70.4 0-28.8-6.4-51.2-22.4-70.4-14.4-19.2-32-28.8-51.2-28.8z m252.8-260.8s6.4-32 0-89.6-16-107.2-38.4-155.2c0 0-9.6 3.2-28.8 6.4-19.2 6.4-51.2 16-92.8 35.2-41.6 19.2-86.4 44.8-132.8 76.8-32-9.6-80-12.8-139.2-12.8s-104 3.2-139.2 12.8C268.8 124.8 185.6 86.4 115.2 76.8 96 124.8 83.2 176 80 232c-6.4 57.6 0 89.6 0 89.6C25.6 382.4 3.2 467.2 3.2 537.6c0 54.4 0 104 12.8 148.8 12.8 44.8 28.8 80 48 107.2s44.8 51.2 73.6 73.6 54.4 35.2 80 44.8c25.6 9.6 51.2 16 83.2 22.4 32 6.4 54.4 9.6 70.4 9.6 0 0 64 3.2 145.6 3.2s145.6-3.2 145.6-3.2c16 0 38.4-3.2 70.4-9.6 32-6.4 57.6-12.8 83.2-22.4 22.4-9.6 51.2-25.6 80-44.8 28.8-19.2 51.2-44.8 70.4-73.6 19.2-28.8 35.2-64 48-107.2 12.8-44.8 12.8-96 12.8-148.8-9.6-67.2-32-155.2-86.4-216z m-148.8 529.6c-64 28.8-155.2 41.6-280 41.6h-3.2c-123.2 0-216-12.8-280-41.6s-92.8-92.8-92.8-184c0-54.4 19.2-99.2 57.6-132.8 16-16 38.4-25.6 64-32 25.6-6.4 48-6.4 70.4-6.4 22.4 0 51.2 6.4 89.6 6.4 38.4 3.2 67.2 6.4 96 6.4 25.6 0 60.8-3.2 116.8-9.6 57.6-3.2 99.2-6.4 126.4-3.2 28.8 3.2 51.2 12.8 73.6 35.2 41.6 35.2 60.8 80 60.8 132.8-3.2 96-35.2 158.4-99.2 187.2z" fill="#888888" p-id="48995"></path></svg>